<svg width="2039" height="1343" xmlns="http://www.w3.org/2000/svg" xmlns:xlink="http://www.w3.org/1999/xlink" xml:space="preserve" overflow="hidden"><defs><clipPath id="clip0"><rect x="2493" y="948" width="2039" height="1343"/></clipPath><clipPath id="clip1"><rect x="2493" y="948" width="2039" height="1343"/></clipPath></defs><g clip-path="url(#clip0)" transform="translate(-2493 -948)"><g clip-path="url(#clip1)"><rect x="2496" y="953" width="2032" height="1334" fill="#FFFFFF" fill-opacity="1"/><g><path d="M2633.5 1965.56 4477.5 1965.56M2633.5 1845.56 4477.5 1845.56M2633.5 1725.56 4477.5 1725.56M2633.5 1605.55 4477.5 1605.55M2633.5 1484.55 4477.5 1484.55M2633.5 1364.54 4477.5 1364.54M2633.5 1244.54 4477.5 1244.54M2633.5 1123.54 4477.5 1123.54M2633.5 1003.5 4477.5 1003.5" stroke="#D9D9D9" stroke-width="3.4375" stroke-linecap="butt" stroke-linejoin="round" stroke-miterlimit="10" stroke-opacity="1" fill="none" fill-rule="nonzero"/></g><g><path d="M2633.5 2086.5 4477.5 2086.5" stroke="#D9D9D9" stroke-width="3.4375" stroke-linecap="butt" stroke-linejoin="round" stroke-miterlimit="10" stroke-opacity="1" fill="none" fill-rule="evenodd"/></g><g><path d="M2864 1179 3325.11 1326.04 3786.12 1319.04 4247 1490" stroke="#104862" stroke-width="10.3125" stroke-linecap="round" stroke-linejoin="round" stroke-miterlimit="10" stroke-opacity="1" fill="none" fill-rule="nonzero"/></g><g><path d="M2881.12 1178.83C2881.12 1188.77 2873.07 1196.83 2863.12 1196.83 2853.18 1196.83 2845.13 1188.77 2845.13 1178.83 2845.13 1168.89 2853.18 1160.83 2863.12 1160.83 2873.07 1160.83 2881.12 1168.89 2881.12 1178.83Z" stroke="#156082" stroke-width="3.4375" stroke-linecap="butt" stroke-linejoin="round" stroke-miterlimit="10" stroke-opacity="1" fill="#156082" fill-rule="nonzero" fill-opacity="1"/><path d="M3342.12 1326.83C3342.12 1336.77 3334.07 1344.83 3324.12 1344.83 3314.18 1344.83 3306.13 1336.77 3306.13 1326.83 3306.13 1316.89 3314.18 1308.83 3324.12 1308.83 3334.07 1308.83 3342.12 1316.89 3342.12 1326.83Z" stroke="#156082" stroke-width="3.4375" stroke-linecap="butt" stroke-linejoin="round" stroke-miterlimit="10" stroke-opacity="1" fill="#156082" fill-rule="nonzero" fill-opacity="1"/><path d="M3804.12 1318.83C3804.12 1328.77 3796.07 1336.83 3786.12 1336.83 3776.18 1336.83 3768.13 1328.77 3768.13 1318.83 3768.13 1308.89 3776.18 1300.83 3786.12 1300.83 3796.07 1300.83 3804.12 1308.89 3804.12 1318.83Z" stroke="#156082" stroke-width="3.4375" stroke-linecap="butt" stroke-linejoin="round" stroke-miterlimit="10" stroke-opacity="1" fill="#156082" fill-rule="nonzero" fill-opacity="1"/><path d="M4265.12 1490.83C4265.12 1500.77 4257.07 1508.83 4247.12 1508.83 4237.18 1508.83 4229.13 1500.77 4229.13 1490.83 4229.13 1480.89 4237.18 1472.83 4247.12 1472.83 4257.07 1472.83 4265.12 1480.89 4265.12 1490.83Z" stroke="#156082" stroke-width="3.4375" stroke-linecap="butt" stroke-linejoin="round" stroke-miterlimit="10" stroke-opacity="1" fill="#156082" fill-rule="nonzero" fill-opacity="1"/></g><g><path d="M2864 1175.04 3325.11 1064 3786.12 1234.04 4247 1471" stroke="#8ED973" stroke-width="10.3125" stroke-linecap="round" stroke-linejoin="round" stroke-miterlimit="10" stroke-opacity="1" fill="none" fill-rule="nonzero"/></g><g><path d="M2881.12 1174.83C2881.12 1184.77 2873.07 1192.83 2863.12 1192.83 2853.18 1192.83 2845.13 1184.77 2845.13 1174.83 2845.13 1164.89 2853.18 1156.83 2863.12 1156.83 2873.07 1156.83 2881.12 1164.89 2881.12 1174.83Z" stroke="#8ED973" stroke-width="3.4375" stroke-linecap="butt" stroke-linejoin="round" stroke-miterlimit="10" stroke-opacity="1" fill="#8ED973" fill-rule="nonzero" fill-opacity="1"/><path d="M3342.12 1064.83C3342.12 1074.77 3334.07 1082.83 3324.12 1082.83 3314.18 1082.83 3306.13 1074.77 3306.13 1064.83 3306.13 1054.89 3314.18 1046.83 3324.12 1046.83 3334.07 1046.83 3342.12 1054.89 3342.12 1064.83Z" stroke="#8ED973" stroke-width="3.4375" stroke-linecap="butt" stroke-linejoin="round" stroke-miterlimit="10" stroke-opacity="1" fill="#8ED973" fill-rule="nonzero" fill-opacity="1"/><path d="M3804.12 1234.83C3804.12 1244.77 3796.07 1252.83 3786.12 1252.83 3776.18 1252.83 3768.13 1244.77 3768.13 1234.83 3768.13 1224.89 3776.18 1216.83 3786.12 1216.83 3796.07 1216.83 3804.12 1224.89 3804.12 1234.83Z" stroke="#8ED973" stroke-width="3.4375" stroke-linecap="butt" stroke-linejoin="round" stroke-miterlimit="10" stroke-opacity="1" fill="#8ED973" fill-rule="nonzero" fill-opacity="1"/><path d="M4265.12 1471.83C4265.12 1481.77 4257.07 1489.83 4247.12 1489.83 4237.18 1489.83 4229.13 1481.77 4229.13 1471.83 4229.13 1461.89 4237.18 1453.83 4247.12 1453.83 4257.07 1453.83 4265.12 1461.89 4265.12 1471.83Z" stroke="#8ED973" stroke-width="3.4375" stroke-linecap="butt" stroke-linejoin="round" stroke-miterlimit="10" stroke-opacity="1" fill="#8ED973" fill-rule="nonzero" fill-opacity="1"/></g><g><text fill="#595959" fill-opacity="1" font-family="Garamond,Garamond_MSFontService,sans-serif" font-style="normal" font-variant="normal" font-weight="400" font-stretch="normal" font-size="41" text-anchor="start" direction="ltr" writing-mode="lr-tb" unicode-bidi="normal" text-decoration="none" transform="matrix(1 0 0 1 2544.76 2097)">0%</text></g><g><text fill="#595959" fill-opacity="1" font-family="Garamond,Garamond_MSFontService,sans-serif" font-style="normal" font-variant="normal" font-weight="400" font-stretch="normal" font-size="41" text-anchor="start" direction="ltr" writing-mode="lr-tb" unicode-bidi="normal" text-decoration="none" transform="matrix(1 0 0 1 2544.76 1976)">5%</text></g><g><text fill="#595959" fill-opacity="1" font-family="Garamond,Garamond_MSFontService,sans-serif" font-style="normal" font-variant="normal" font-weight="400" font-stretch="normal" font-size="41" text-anchor="start" direction="ltr" writing-mode="lr-tb" unicode-bidi="normal" text-decoration="none" transform="matrix(1 0 0 1 2525.42 1856)">10%</text></g><g><text fill="#595959" fill-opacity="1" font-family="Garamond,Garamond_MSFontService,sans-serif" font-style="normal" font-variant="normal" font-weight="400" font-stretch="normal" font-size="41" text-anchor="start" direction="ltr" writing-mode="lr-tb" unicode-bidi="normal" text-decoration="none" transform="matrix(1 0 0 1 2525.42 1736)">15%</text></g><g><text fill="#595959" fill-opacity="1" font-family="Garamond,Garamond_MSFontService,sans-serif" font-style="normal" font-variant="normal" font-weight="400" font-stretch="normal" font-size="41" text-anchor="start" direction="ltr" writing-mode="lr-tb" unicode-bidi="normal" text-decoration="none" transform="matrix(1 0 0 1 2525.42 1616)">20%</text></g><g><text fill="#595959" fill-opacity="1" font-family="Garamond,Garamond_MSFontService,sans-serif" font-style="normal" font-variant="normal" font-weight="400" font-stretch="normal" font-size="41" text-anchor="start" direction="ltr" writing-mode="lr-tb" unicode-bidi="normal" text-decoration="none" transform="matrix(1 0 0 1 2525.42 1495)">25%</text></g><g><text fill="#595959" fill-opacity="1" font-family="Garamond,Garamond_MSFontService,sans-serif" font-style="normal" font-variant="normal" font-weight="400" font-stretch="normal" font-size="41" text-anchor="start" direction="ltr" writing-mode="lr-tb" unicode-bidi="normal" text-decoration="none" transform="matrix(1 0 0 1 2525.42 1375)">30%</text></g><g><text fill="#595959" fill-opacity="1" font-family="Garamond,Garamond_MSFontService,sans-serif" font-style="normal" font-variant="normal" font-weight="400" font-stretch="normal" font-size="41" text-anchor="start" direction="ltr" writing-mode="lr-tb" unicode-bidi="normal" text-decoration="none" transform="matrix(1 0 0 1 2525.42 1255)">35%</text></g><g><text fill="#595959" fill-opacity="1" font-family="Garamond,Garamond_MSFontService,sans-serif" font-style="normal" font-variant="normal" font-weight="400" font-stretch="normal" font-size="41" text-anchor="start" direction="ltr" writing-mode="lr-tb" unicode-bidi="normal" text-decoration="none" transform="matrix(1 0 0 1 2525.42 1134)">40%</text></g><g><text fill="#595959" fill-opacity="1" font-family="Garamond,Garamond_MSFontService,sans-serif" font-style="normal" font-variant="normal" font-weight="400" font-stretch="normal" font-size="41" text-anchor="start" direction="ltr" writing-mode="lr-tb" unicode-bidi="normal" text-decoration="none" transform="matrix(1 0 0 1 2525.42 1014)">45%</text></g><g><text fill="#595959" fill-opacity="1" font-family="Garamond,Garamond_MSFontService,sans-serif" font-style="normal" font-variant="normal" font-weight="400" font-stretch="normal" font-size="41" text-anchor="start" direction="ltr" writing-mode="lr-tb" unicode-bidi="normal" text-decoration="none" transform="matrix(1 0 0 1 2825 2146)">2012</text></g><g><text fill="#595959" fill-opacity="1" font-family="Garamond,Garamond_MSFontService,sans-serif" font-style="normal" font-variant="normal" font-weight="400" font-stretch="normal" font-size="41" text-anchor="start" direction="ltr" writing-mode="lr-tb" unicode-bidi="normal" text-decoration="none" transform="matrix(1 0 0 1 3286.21 2146)">2016</text></g><g><text fill="#595959" fill-opacity="1" font-family="Garamond,Garamond_MSFontService,sans-serif" font-style="normal" font-variant="normal" font-weight="400" font-stretch="normal" font-size="41" text-anchor="start" direction="ltr" writing-mode="lr-tb" unicode-bidi="normal" text-decoration="none" transform="matrix(1 0 0 1 3747.42 2146)">2020</text></g><g><text fill="#595959" fill-opacity="1" font-family="Garamond,Garamond_MSFontService,sans-serif" font-style="normal" font-variant="normal" font-weight="400" font-stretch="normal" font-size="41" text-anchor="start" direction="ltr" writing-mode="lr-tb" unicode-bidi="normal" text-decoration="none" transform="matrix(1 0 0 1 4208.63 2146)">2024</text></g><g><path d="M3110 2223 3198 2223" stroke="#104862" stroke-width="10.3125" stroke-linecap="round" stroke-linejoin="round" stroke-miterlimit="10" stroke-opacity="1" fill="none" fill-rule="evenodd"/></g><g><path d="M3165 2222.5C3165 2228.31 3160.07 2233.02 3154 2233.02 3147.93 2233.02 3143 2228.31 3143 2222.5 3143 2216.69 3147.93 2211.98 3154 2211.98 3160.07 2211.98 3165 2216.69 3165 2222.5Z" stroke="#156082" stroke-width="3.4375" stroke-linecap="butt" stroke-linejoin="round" stroke-miterlimit="10" stroke-opacity="1" fill="#156082" fill-rule="nonzero" fill-opacity="1"/></g><g><text fill="#595959" fill-opacity="1" font-family="Garamond,Garamond_MSFontService,sans-serif" font-style="normal" font-variant="normal" font-weight="400" font-stretch="normal" font-size="41" text-anchor="start" direction="ltr" writing-mode="lr-tb" unicode-bidi="normal" text-decoration="none" transform="matrix(1 0 0 1 3207.71 2233)">Blue TV viewers</text></g><g><path d="M3538 2223 3626 2223" stroke="#8ED973" stroke-width="10.3125" stroke-linecap="round" stroke-linejoin="round" stroke-miterlimit="10" stroke-opacity="1" fill="none" fill-rule="evenodd"/></g><g><path d="M3593 2222.5C3593 2228.31 3588.07 2233.02 3582 2233.02 3575.93 2233.02 3571 2228.31 3571 2222.5 3571 2216.69 3575.93 2211.98 3582 2211.98 3588.07 2211.98 3593 2216.69 3593 2222.5Z" stroke="#8ED973" stroke-width="3.4375" stroke-linecap="butt" stroke-linejoin="round" stroke-miterlimit="10" stroke-opacity="1" fill="#8ED973" fill-rule="nonzero" fill-opacity="1"/></g><g><text fill="#595959" fill-opacity="1" font-family="Garamond,Garamond_MSFontService,sans-serif" font-style="normal" font-variant="normal" font-weight="400" font-stretch="normal" font-size="41" text-anchor="start" direction="ltr" writing-mode="lr-tb" unicode-bidi="normal" text-decoration="none" transform="matrix(1 0 0 1 3635.32 2233)">Green TV viewers</text></g><rect x="2496.5" y="953.5" width="2032" height="1334" stroke="#D9D9D9" stroke-width="3.4375" stroke-linecap="butt" stroke-linejoin="round" stroke-miterlimit="10" stroke-opacity="1" fill="none"/></g></g></svg>